<?xml version="1.0" encoding="utf-8"?>
<!-- Generator: Adobe Illustrator 19.2.0, SVG Export Plug-In . SVG Version: 6.00 Build 0)  -->
<svg version="1.1" id="Capa_1" xmlns="http://www.w3.org/2000/svg" xmlns:xlink="http://www.w3.org/1999/xlink" x="0px" y="0px"
	 viewBox="0 0 438.5 438.5" style="enable-background:new 0 0 438.5 438.5;" xml:space="preserve">
<metadata><?xpacket begin="﻿" id="W5M0MpCehiHzreSzNTczkc9d"?>
<x:xmpmeta xmlns:x="adobe:ns:meta/" x:xmptk="Adobe XMP Core 5.6-c111 79.158366, 2015/09/25-01:12:00        ">
   <rdf:RDF xmlns:rdf="http://www.w3.org/1999/02/22-rdf-syntax-ns#">
      <rdf:Description rdf:about=""/>
   </rdf:RDF>
</x:xmpmeta>
                                                                                                    
                                                                                                    
                                                                                                    
                                                                                                    
                                                                                                    
                                                                                                    
                                                                                                    
                                                                                                    
                                                                                                    
                                                                                                    
                                                                                                    
                                                                                                    
                                                                                                    
                                                                                                    
                                                                                                    
                                                                                                    
                                                                                                    
                                                                                                    
                                                                                                    
                                                                                                    
                           
<?xpacket end="w"?></metadata>
<style type="text/css">
	.st0{fill:#1998D5;}
</style>
<g>
	<path class="st0" d="M414.4,24.1C398.3,8,379,0,356.3,0H82.2c-22.6,0-42,8-58.1,24.1C8,40.2,0,59.6,0,82.2v274.1
		c0,22.6,8,42,24.1,58.1c16.1,16.1,35.5,24.1,58.1,24.1h274.1c22.6,0,42-8,58.1-24.1c16.1-16.1,24.1-35.5,24.1-58.1V82.2
		C438.5,59.6,430.5,40.2,414.4,24.1z M373.2,225.5h-50v181.3h-74.8V225.5H211V163h37.4v-37.4c0-26.8,6.3-47.1,18.8-60.8
		c12.6-13.7,33.3-20.6,62.2-20.6h50v62.5H348c-10.7,0-17.5,1.9-20.4,5.6c-2.9,3.7-4.4,10.2-4.4,19.6V163h56.5L373.2,225.5z"/>
</g>
</svg>
