<?xml version="1.0" encoding="utf-8"?>
<!-- Generator: Adobe Illustrator 19.2.0, SVG Export Plug-In . SVG Version: 6.00 Build 0)  -->
<svg version="1.1" id="Capa_1" xmlns="http://www.w3.org/2000/svg" xmlns:xlink="http://www.w3.org/1999/xlink" x="0px" y="0px"
	 viewBox="0 0 438.5 438.5" style="enable-background:new 0 0 438.5 438.5;" xml:space="preserve">
<metadata><?xpacket begin="﻿" id="W5M0MpCehiHzreSzNTczkc9d"?>
<x:xmpmeta xmlns:x="adobe:ns:meta/" x:xmptk="Adobe XMP Core 5.6-c111 79.158366, 2015/09/25-01:12:00        ">
   <rdf:RDF xmlns:rdf="http://www.w3.org/1999/02/22-rdf-syntax-ns#">
      <rdf:Description rdf:about=""/>
   </rdf:RDF>
</x:xmpmeta>
                                                                                                    
                                                                                                    
                                                                                                    
                                                                                                    
                                                                                                    
                                                                                                    
                                                                                                    
                                                                                                    
                                                                                                    
                                                                                                    
                                                                                                    
                                                                                                    
                                                                                                    
                                                                                                    
                                                                                                    
                                                                                                    
                                                                                                    
                                                                                                    
                                                                                                    
                                                                                                    
                           
<?xpacket end="w"?></metadata>
<style type="text/css">
	.st0{fill:#1998D5;}
</style>
<g>
	<path class="st0" d="M422,16.6C410.9,5.5,397.7,0,382.3,0h-326C40.8,0,27.6,5.5,16.6,16.6C5.5,27.6,0,40.8,0,56.2v326
		c0,15.4,5.5,28.6,16.6,39.7c11,11,24.3,16.6,39.7,16.6h326c15.4,0,28.6-5.5,39.7-16.6c11-11,16.6-24.3,16.6-39.7v-326
		C438.5,40.8,433,27.6,422,16.6z M157.5,158c17.2-16.7,37.9-25,62.1-25c24.4,0,45.2,8.3,62.4,25c17.2,16.7,25.8,36.8,25.8,60.4
		c0,23.6-8.6,43.7-25.8,60.4c-17.2,16.7-38,25-62.4,25c-24.2,0-44.9-8.3-62.1-25c-17.2-16.7-25.8-36.8-25.8-60.4
		C131.6,194.8,140.2,174.7,157.5,158z M388.9,370.6c0,4.9-1.7,9.1-5.1,12.4c-3.4,3.3-7.5,5-12.3,5H66.2c-4.9,0-9.1-1.7-12.4-5
		c-3.3-3.3-5-7.5-5-12.4v-185h40.3c-3.8,12-5.7,24.5-5.7,37.4c0,36.6,13.3,67.7,40,93.5c26.6,25.8,58.7,38.7,96.2,38.7
		c24.7,0,47.6-5.9,68.5-17.7c20.9-11.8,37.5-27.8,49.7-48.1C349.9,269.1,356,247,356,223c0-12.9-1.9-25.4-5.7-37.4h38.5L388.9,370.6
		L388.9,370.6L388.9,370.6z M388.9,115.6c0,5.5-1.9,10.2-5.7,14c-3.8,3.8-8.5,5.7-14,5.7h-49.7c-5.5,0-10.2-1.9-14-5.7
		c-3.8-3.8-5.7-8.5-5.7-14V68.5c0-5.3,1.9-9.9,5.7-13.8c3.8-3.9,8.5-5.9,14-5.9h49.7c5.5,0,10.2,2,14,5.9c3.8,3.9,5.7,8.5,5.7,13.8
		V115.6z"/>
</g>
</svg>
