<?xml version="1.0" encoding="utf-8"?>
<!-- Generator: Adobe Illustrator 19.2.0, SVG Export Plug-In . SVG Version: 6.00 Build 0)  -->
<svg version="1.1" id="Capa_1" xmlns="http://www.w3.org/2000/svg" xmlns:xlink="http://www.w3.org/1999/xlink" x="0px" y="0px"
	 viewBox="0 0 438.5 438.5" style="enable-background:new 0 0 438.5 438.5;" xml:space="preserve">
<metadata><?xpacket begin="﻿" id="W5M0MpCehiHzreSzNTczkc9d"?>
<x:xmpmeta xmlns:x="adobe:ns:meta/" x:xmptk="Adobe XMP Core 5.6-c111 79.158366, 2015/09/25-01:12:00        ">
   <rdf:RDF xmlns:rdf="http://www.w3.org/1999/02/22-rdf-syntax-ns#">
      <rdf:Description rdf:about=""/>
   </rdf:RDF>
</x:xmpmeta>
                                                                                                    
                                                                                                    
                                                                                                    
                                                                                                    
                                                                                                    
                                                                                                    
                                                                                                    
                                                                                                    
                                                                                                    
                                                                                                    
                                                                                                    
                                                                                                    
                                                                                                    
                                                                                                    
                                                                                                    
                                                                                                    
                                                                                                    
                                                                                                    
                                                                                                    
                                                                                                    
                           
<?xpacket end="w"?></metadata>
<style type="text/css">
	.st0{fill:#1998D5;}
</style>
<g>
	<g>
		<path class="st0" d="M414.4,24.1C398.3,8,379,0,356.3,0H82.2c-22.6,0-42,8-58.1,24.1C8,40.2,0,59.6,0,82.2v274.1
			c0,22.6,8,42,24.1,58.1c16.1,16.1,35.5,24.1,58.1,24.1h274.1c22.6,0,42-8,58.1-24.1c16.1-16.1,24.1-35.5,24.1-58.1V82.2
			C438.5,59.6,430.5,40.2,414.4,24.1z M259,63.4h19.1V141c0,4.6,0.1,7,0.3,7.4c0.2,3,1.7,4.6,4.6,4.6c3.8,0,7.8-2.9,12-8.8V63.4
			h19.1V169h-19.1h0v-11.4c-7.8,8.6-15.1,12.9-22,12.9c-6.1,0-10.2-2.6-12.3-7.7c-1.1-3.4-1.7-8.7-1.7-15.7V63.4L259,63.4z
			 M186.7,97.6c0-11,2-19.3,6-24.8C197.9,65.6,205.3,62,215,62c9.3,0,16.8,3.6,22.3,10.8c4,5.5,6,13.8,6,24.8v37.1
			c0,11.4-2,19.7-6,24.8c-5.5,7.2-12.9,10.9-22.3,10.9c-9.7,0-17.1-3.6-22.3-10.9c-4-5.5-6-13.8-6-24.8V97.6z M135.3,27.1l15.1,55.7
			L165,27.1h21.4l-25.7,84.5h0V169h-21.1v-57.4c-2.1-10.5-6.5-25.5-13.1-45.1c-4.4-13.1-6.6-19.7-6.6-19.7l-6.9-19.7L135.3,27.1
			L135.3,27.1z M370.6,371.7c-1.9,8.2-5.9,15.1-12.1,20.8c-6.2,5.7-13.4,9-21.5,10c-26.1,2.9-65.3,4.3-117.6,4.3
			c-52.3,0-91.6-1.4-117.6-4.3c-8.2-1-15.4-4.3-21.6-10c-6.2-5.7-10.2-12.7-12.1-20.8c-3.8-16-5.7-40.7-5.7-74.2
			c0-32.9,1.9-57.7,5.7-74.2c1.9-8.4,5.9-15.4,12.1-21c6.2-5.6,13.5-8.9,21.8-9.9c25.9-2.9,65-4.3,117.3-4.3
			c52.5,0,91.7,1.4,117.6,4.3c8.2,1,15.4,4.2,21.7,9.9c6.3,5.6,10.4,12.6,12.3,21c3.6,15.8,5.4,40.5,5.4,74.2
			C376.3,331,374.4,355.7,370.6,371.7z"/>
		<polygon class="st0" points="85.7,244.7 107.9,244.7 107.9,365.4 129,365.4 129,244.7 151.9,244.7 151.9,224.7 85.7,224.7 		"/>
		<path class="st0" d="M190.1,340.6c-4.2,5.9-8.2,8.8-12,8.8c-2.7,0-4.1-1.4-4.3-4.3c-0.2-0.4-0.3-2.9-0.3-7.4v-77.1h-18.8v82.8
			c0,7.2,0.6,12.4,1.7,15.4c1.7,5.3,5.7,8,12,8c7,0,14.3-4.3,21.7-12.8v11.4h19.1V260.7h-19.1L190.1,340.6L190.1,340.6z"/>
		<path class="st0" d="M264.1,259.2c-6.9,0-13.3,3.8-19.4,11.4v-46h-19.1v140.8h19.1v-10.3c6.3,7.8,12.8,11.7,19.4,11.7
			c7.8,0,12.8-4,15.1-12c1.3-4,2-10.9,2-20.8v-41.7c0-10.1-0.7-17.1-2-21.1C276.9,263.2,271.9,259.2,264.1,259.2z M262.4,335.5
			c0,9.3-2.8,14-8.3,14c-3.2,0-6.4-1.5-9.4-4.6v-64c3-3,6.2-4.6,9.4-4.6c5.5,0,8.3,4.8,8.3,14.3V335.5z"/>
		<path class="st0" d="M333.5,335.3c0,2,0,3.6-0.1,4.7c-0.1,1.1-0.1,1.8-0.1,2c-1.1,4.9-4,7.4-8.6,7.4c-6.5,0-9.7-4.9-9.7-14.6
			v-18.6h38v-21.7c0-11-2-19.2-6-24.6c-5.1-7.2-12.6-10.9-22.3-10.9s-17.3,3.6-22.8,10.9c-3.8,5.1-5.7,13.3-5.7,24.6v36.8
			c0,11.2,2,19.4,6,24.6c5.5,7.2,13.2,10.9,23.1,10.9c10.1,0,17.7-3.8,22.8-11.4c2.3-3.4,3.7-7.2,4.3-11.4c0.4-2.7,0.6-6.8,0.6-12.3
			v-2.6v0h-19.4L333.5,335.3L333.5,335.3L333.5,335.3z M314.9,290.9c0-9.7,3.1-14.6,9.4-14.6c6.3,0,9.4,4.9,9.4,14.6v9.7h-18.8
			V290.9z"/>
		<path class="st0" d="M215,153c6.1,0,9.1-4.9,9.1-14.6V93.9c0-9.9-3-14.8-9.1-14.8c-6.1,0-9.1,5-9.1,14.8v44.5
			C205.9,148.2,208.9,153,215,153z"/>
	</g>
</g>
</svg>
