<?xml version="1.0" encoding="utf-8"?>
<!-- Generator: Adobe Illustrator 19.2.0, SVG Export Plug-In . SVG Version: 6.00 Build 0)  -->
<svg version="1.1" xmlns="http://www.w3.org/2000/svg" xmlns:xlink="http://www.w3.org/1999/xlink" x="0px" y="0px"
	 viewBox="0 0 511.6 511.6" style="enable-background:new 0 0 511.6 511.6;" xml:space="preserve">
<metadata><?xpacket begin="﻿" id="W5M0MpCehiHzreSzNTczkc9d"?>
<x:xmpmeta xmlns:x="adobe:ns:meta/" x:xmptk="Adobe XMP Core 5.6-c111 79.158366, 2015/09/25-01:12:00        ">
   <rdf:RDF xmlns:rdf="http://www.w3.org/1999/02/22-rdf-syntax-ns#">
      <rdf:Description rdf:about=""/>
   </rdf:RDF>
</x:xmpmeta>
                                                                                                    
                                                                                                    
                                                                                                    
                                                                                                    
                                                                                                    
                                                                                                    
                                                                                                    
                                                                                                    
                                                                                                    
                                                                                                    
                                                                                                    
                                                                                                    
                                                                                                    
                                                                                                    
                                                                                                    
                                                                                                    
                                                                                                    
                                                                                                    
                                                                                                    
                                                                                                    
                           
<?xpacket end="w"?></metadata>
<style type="text/css">
	.st0{fill:#1998D5;}
</style>
<g id="Layer_2">
</g>
<g id="Capa_1">
	<g>
		<path class="st0" d="M511.3,213c-0.2-10.3-1-23.3-2.4-39c-1.4-15.7-3.5-29.7-6.1-42.1c-3-13.9-9.7-25.6-19.8-35.1
			c-10.2-9.5-22-15-35.5-16.6c-42.3-4.8-106.1-7.1-191.6-7.1c-85.5,0-149.3,2.4-191.6,7.1c-13.5,1.5-25.3,7-35.4,16.6
			c-10.1,9.5-16.7,21.2-19.7,35.1c-2.9,12.4-5,26.4-6.4,42.1c-1.4,15.7-2.2,28.7-2.4,39C0.1,223.3,0,237.5,0,255.8
			c0,18.3,0.1,32.6,0.3,42.8c0.2,10.3,1,23.3,2.4,39c1.4,15.7,3.5,29.7,6.1,42.1c3,13.9,9.7,25.6,19.8,35.1
			c10.2,9.5,22,15,35.5,16.6c42.3,4.8,106.1,7.1,191.6,7.1c85.5,0,149.3-2.4,191.6-7.1c13.5-1.5,25.3-7,35.4-16.6
			c10.1-9.5,16.7-21.2,19.7-35.1c2.9-12.4,5-26.4,6.4-42.1c1.4-15.7,2.2-28.7,2.4-39c0.2-10.3,0.3-24.6,0.3-42.8
			C511.6,237.5,511.5,223.3,511.3,213z M356.9,271.2l-146.2,91.4c-2.7,1.9-5.9,2.9-9.7,2.9c-2.9,0-5.8-0.8-8.8-2.3
			c-6.3-3.4-9.4-8.8-9.4-16V164.5c0-7.2,3.1-12.6,9.4-16c6.5-3.4,12.7-3.2,18.6,0.6l146.2,91.4c5.7,3.2,8.6,8.4,8.6,15.4
			C365.4,262.9,362.6,268,356.9,271.2z"/>
	</g>
</g>
</svg>
